:version 1.10
:name ASF
:units
  mass 1
  length 1
  angle deg
:documentation
  ASF file generated by Kaydara
:root
  axis xyz
  order  tx ty tz rx ry rz
  position 0 0 0
  orientation 0 0 0
:bonedata
  begin
    id 1
    name LeftUpLegDummy
    direction 1 -2.30186e-007 -8.31532e-007
    length 2.93387
    axis 0 0 0 xyz
  end
  begin
    id 2
    name LeftUpLeg
    direction -1.82929e-007 -1 -1.48925e-009
    length 17.3336
    axis -3.48766 0.00143442 -0.000521554 xyz
    dof rx ry rz
  end
  begin
    id 3
    name LeftLeg
    direction -1.82929e-007 -1 -5.23717e-011
    length 14.9995
    axis 3.68178 -0.00654042 -0.000282425 xyz
    dof rx ry rz
  end
  begin
    id 4
    name LeftFoot
    direction 8.31532e-007 -4.54534e-011 1
    length 6.74421
    axis 1.87234e-006 4.66016e-005 -5.96866e-006 xyz
    dof rx ry rz
  end
  begin
    id 5
    name LeftToes
    direction 0.00818058 -0.00485161 0.999955
    length 3.85048
    axis 1.06247e-005 4.65869e-005 -5.96999e-006 xyz
    dof rx ry rz
  end
  begin
    id 6
    name SpineDummy
    direction -5.8607e-008 0.943407 -0.331637
    length 5.93572
    axis 0 0 0 xyz
  end
  begin
    id 7
    name Spine
    direction -1.04988e-007 0.999988 0.00495137
    length 10.1015
    axis -0.001389 0.000121417 6.61666e-006 xyz
    dof rx ry rz
  end
  begin
    id 8
    name Spine1
    direction 0 0 0
    length 0
    axis -0.001389 0.00012144 6.56766e-006 xyz
    dof rx ry rz
  end
  begin
    id 9
    name RightShoulderDummy
    direction -0.98348 0.17941 -0.0240696
    length 3.59882
    axis -0.001389 0.00012144 6.56766e-006 xyz
  end
  begin
    id 10
    name RightShoulder
    direction -0.978693 0.204882 0.0135597
    length 2.70001
    axis 0.215806 0.000203631 -0.00679732 xyz
    dof rx ry rz
  end
  begin
    id 11
    name RightArm
    direction -1 3.85509e-006 8.31394e-007
    length 10.2459
    axis -23.2009 -0.134239 -0.964098 xyz
    dof rx ry rz
  end
  begin
    id 12
    name RightForeArm
    direction -1 3.85569e-006 8.3129e-007
    length 8.16799
    axis -9.92322 0.0658061 0.17887 xyz
    dof rx ry rz
  end
  begin
    id 13
    name RightHand
    direction -0.992843 -0.0414604 0.112003
    length 5.28593
    axis -0.00960638 0.00330669 -0.185225 xyz
    dof rx ry rz
  end
  begin
    id 14
    name LeftShoulder1Dummy
    direction 0.983523 0.179172 -0.0240748
    length 3.59866
    axis -0.001389 0.00012144 6.56766e-006 xyz
  end
  begin
    id 15
    name LeftShoulder1
    direction 0.978627 0.205195 0.0135605
    length 2.70019
    axis -0.001389 0.00012144 6.57583e-006 xyz
    dof rx ry rz
  end
  begin
    id 16
    name LeftArm
    direction 1 3.51895e-006 -8.60188e-007
    length 10.2459
    axis -23.1894 0.134785 0.967513 xyz
    dof rx ry rz
  end
  begin
    id 17
    name LeftForeArm
    direction 1 3.51921e-006 -7.32029e-007
    length 8.16799
    axis -9.91835 -0.0656957 -0.177789 xyz
    dof rx ry rz
  end
  begin
    id 18
    name LeftHand
    direction 0.992938 -0.0411636 0.11126
    length 5.32135
    axis -0.00960237 -0.00340661 0.185177 xyz
    dof rx ry rz
  end
  begin
    id 19
    name HEadDummy
    direction 1.01974e-006 0.999861 -0.016675
    length 2.99946
    axis -0.001389 0.00012144 6.56766e-006 xyz
  end
  begin
    id 20
    name HEad
    direction -0.0222689 0.980941 0.193023
    length 5.12695
    axis -0.001389 0.00012144 6.56766e-006 xyz
    dof rx ry rz
  end
  begin
    id 21
    name RightUpLegDummy
    direction -1 2.30186e-007 8.31532e-007
    length 2.93387
    axis 0 0 0 xyz
  end
  begin
    id 22
    name RightUpLeg
    direction -1.82966e-007 -1 1.56832e-007
    length 17.3336
    axis -3.4909 -0.000906625 0.00028951 xyz
    dof rx ry rz
  end
  begin
    id 23
    name RightLeg
    direction -1.82786e-007 -1 -1.80317e-007
    length 14.9995
    axis 3.68513 0.0193739 -0.131021 xyz
    dof rx ry rz
  end
  begin
    id 24
    name RightFoot
    direction 8.31721e-007 -4.63324e-011 1
    length 6.74421
    axis 4.81691e-005 -0.120479 -0.188785 xyz
    dof rx ry rz
  end
  begin
    id 25
    name RightToes
    direction 0.00124746 -0.014064 0.9999
    length 3.85082
    axis 0.000481921 0.542163 -0.142575 xyz
    dof rx ry rz
  end
:hierarchy
  begin
    root LeftUpLegDummy SpineDummy RightUpLegDummy
    LeftUpLegDummy LeftUpLeg
    LeftUpLeg LeftLeg
    LeftLeg LeftFoot
    LeftFoot LeftToes
    SpineDummy Spine
    Spine Spine1
    Spine1 RightShoulderDummy LeftShoulder1Dummy HEadDummy
    RightShoulderDummy RightShoulder
    RightShoulder RightArm
    RightArm RightForeArm
    RightForeArm RightHand
    LeftShoulder1Dummy LeftShoulder1
    LeftShoulder1 LeftArm
    LeftArm LeftForeArm
    LeftForeArm LeftHand
    HEadDummy HEad
    RightUpLegDummy RightUpLeg
    RightUpLeg RightLeg
    RightLeg RightFoot
    RightFoot RightToes
  end

:SAMPLES-PER-SECOND 30
:FULLY-SPECIFIED
:DEGREES
23
root  -23.0488 33.3485 -32.328 1.09236 32.0951 -5.48456
LeftUpLeg  -23.4185 13.553 9.87491
LeftLeg  25.1051 15.8621 6.11824
LeftFoot  8.03906 -0.17087 2.43127
LeftToes  -20.323 1.61378e-006 8.80029e-008
Spine  2.46688 1.58807 2.86513
Spine1  4.82026 3.23323 5.58208
RightShoulder  0.150731 7.31851 8.97713
RightArm  -34.8555 -15.4522 68.5047
RightForeArm  32.0101 13.839 2.48394
RightHand  0.300743 -5.64694 -5.79817
LeftShoulder1  0.011237 1.33936 -9.93549
LeftArm  -13.2024 11.8759 -74.5079
LeftForeArm  33.6466 -15.0943 -2.71718
LeftHand  0.102718 3.33963 3.41465
HEad  5.35249 29.0536 -0.798252
RightUpLeg  -8.12635 -12.0384 9.34099
RightLeg  14.7069 2.67292 0.521188
RightFoot  -5.97502 -0.0346434 -0.286281
RightToes  -17.5188 -0.0807404 -0.16406
24
root  -23.0435 33.3517 -32.31 1.08545 32.0403 -5.48866
LeftUpLeg  -23.404 13.6543 9.89352
LeftLeg  25.1794 15.8136 6.12325
LeftFoot  7.96817 -0.167355 2.40329
LeftToes  -20.2705 1.61378e-006 8.80029e-008
Spine  2.44278 1.58565 2.86071
Spine1  4.77201 3.23532 5.56979
RightShoulder  0.150662 7.37287 8.96232
RightArm  -34.6851 -15.4385 68.5291
RightForeArm  31.9692 13.9089 2.49701
RightHand  0.296808 -5.61638 -5.72866
LeftShoulder1  0.011237 1.30034 -9.88289
LeftArm  -13.1332 11.738 -74.4542
LeftForeArm  33.3079 -15.3178 -2.75967
LeftHand  0.103066 3.29784 3.41562
HEad  5.90482 27.2252 -0.935718
RightUpLeg  -8.05533 -12.2231 9.33143
RightLeg  14.6579 2.92707 0.568074
RightFoot  -5.95372 -0.0346969 -0.311766
RightToes  -17.5837 -0.0807404 -0.16406
25
root  -23.0352 33.3578 -32.2954 1.07327 32.0179 -5.50697
LeftUpLeg  -23.394 13.7555 9.90522
LeftLeg  25.2254 15.7391 6.10957
LeftFoot  7.90744 -0.163009 2.37418
LeftToes  -20.1942 1.61378e-006 8.80029e-008
Spine  2.40238 1.58361 2.85489
Spine1  4.69322 3.2291 5.55314
RightShoulder  0.150326 7.3725 8.91253
RightArm  -34.5001 -15.4001 68.601
RightForeArm  31.9719 13.9348 2.50185
RightHand  0.2924 -5.59956 -5.59707
LeftShoulder1  0.011237 1.32216 -9.82574
LeftArm  -13.1921 11.6062 -74.3974
LeftForeArm  32.6985 -15.5528 -2.80464
LeftHand  0.104081 3.31365 3.51089
HEad  6.89194 24.5364 -1.15745
RightUpLeg  -7.97069 -12.4798 9.32195
RightLeg  14.5548 3.20325 0.615626
RightFoot  -5.89334 -0.0349838 -0.337142
RightToes  -17.7318 -0.0807404 -0.16406
26
root  -23.0243 33.3635 -32.2875 1.05278 31.9876 -5.53474
LeftUpLeg  -23.3924 13.8811 9.91188
LeftLeg  25.2799 15.6487 6.0924
LeftFoot  7.82803 -0.158418 2.33738
LeftToes  -20.0999 1.61378e-006 8.80029e-008
Spine  2.36295 1.58877 2.85003
Spine1  4.61877 3.24205 5.53797
RightShoulder  0.14965 7.36918 8.813
RightArm  -34.3476 -15.3463 68.7061
RightForeArm  31.9173 13.9309 2.50117
RightHand  0.29059 -5.608 -5.57971
LeftShoulder1  0.011237 1.37996 -9.74924
LeftArm  -13.503 11.5247 -74.3623
LeftForeArm  32.1457 -16.1431 -2.91732
LeftHand  0.104928 3.37625 3.62075
HEad  8.29028 21.4023 -1.60797
RightUpLeg  -7.88698 -12.6446 9.31512
RightLeg  14.4471 3.39707 0.646219
RightFoot  -5.83391 -0.0354493 -0.353623
RightToes  -17.7813 -0.0807404 -0.16406
27
root  -23.0059 33.3686 -32.2822 1.04023 31.9505 -5.5605
LeftUpLeg  -23.3789 13.9716 9.90677
LeftLeg  25.3119 15.6036 6.08527
LeftFoot  7.73915 -0.155354 2.30473
LeftToes  -19.9566 1.61378e-006 8.80029e-008
Spine  2.33635 1.59465 2.84418
Spine1  4.56937 3.25734 5.51956
RightShoulder  0.148627 7.38034 8.73136
RightArm  -34.2419 -15.2621 68.7772
RightForeArm  31.8442 13.9416 2.5032
RightHand  0.288853 -5.61613 -5.56262
LeftShoulder1  0.011237 1.42306 -9.68577
LeftArm  -13.8557 11.3923 -74.2945
LeftForeArm  31.8539 -16.5746 -3.00005
LeftHand  0.105548 3.38117 3.67329
HEad  9.96749 18.3417 -2.2357
RightUpLeg  -7.81377 -12.6534 9.30927
RightLeg  14.3474 3.43328 0.646933
RightFoot  -5.77767 -0.0359365 -0.354017
RightToes  -17.8596 -0.0807404 -0.16406
28
root  -22.9798 33.3761 -32.2768 1.04706 31.9079 -5.57702
LeftUpLeg  -23.3255 13.9539 9.90414
LeftLeg  25.2705 15.6616 6.09439
LeftFoot  7.7727 -0.157881 2.32371
LeftToes  -19.9979 1.61378e-006 8.80029e-008
Spine  2.31934 1.60233 2.83002
Spine1  4.53871 3.27545 5.48663
RightShoulder  0.147227 7.37335 8.65667
RightArm  -34.1496 -15.1851 68.838
RightForeArm  31.7854 14.0159 2.51713
RightHand  0.287902 -5.61063 -5.57082
LeftShoulder1  0.011237 1.46133 -9.67071
LeftArm  -14.067 11.2545 -74.1398
LeftForeArm  31.7496 -16.9425 -3.0708
LeftHand  0.106894 3.32408 3.7432
HEad  11.3399 15.8627 -2.81729
RightUpLeg  -7.72573 -12.5176 9.29419
RightLeg  14.1942 3.33002 0.618342
RightFoot  -5.70883 -0.03575 -0.339489
RightToes  -17.8506 -0.0807404 -0.16406
29
root  -22.944 33.3906 -32.2694 1.15036 31.8446 -5.47413
LeftUpLeg  -23.1427 13.806 9.8082
LeftLeg  24.9384 15.9186 6.08724
LeftFoot  8.06663 -0.17269 2.44874
LeftToes  -20.3538 1.61378e-006 8.80029e-008
Spine  2.32347 1.61224 2.77577
Spine1  4.54807 3.29437 5.38307
RightShoulder  0.145386 7.31408 8.51742
RightArm  -33.8233 -15.1192 68.9616
RightForeArm  31.494 14.2024 2.55221
RightHand  0.286475 -5.64574 -5.57529
LeftShoulder1  0.0109596 1.43774 -9.74929
LeftArm  -14.1225 11.1709 -73.8063
LeftForeArm  31.6244 -17.2887 -3.13765
LeftHand  0.106363 3.32047 3.69925
HEad  12.0537 14.0399 -3.24357
RightUpLeg  -7.63997 -12.128 9.18155
RightLeg  13.9881 3.01236 0.548323
RightFoot  -5.58474 -0.0330667 -0.300429
RightToes  -18.0575 -0.0807404 -0.16406
30
root  -22.9105 33.4086 -32.2673 1.2737 31.906 -5.29725
LeftUpLeg  -22.9099 13.4587 9.64535
LeftLeg  24.457 16.2649 6.06229
LeftFoot  8.43178 -0.192509 2.6111
LeftToes  -20.6097 1.61378e-006 8.80029e-008
Spine  2.32534 1.57675 2.68796
Spine1  4.55034 3.22367 5.21173
RightShoulder  0.14121 7.2879 8.40198
RightArm  -33.562 -15.0974 69.1093
RightForeArm  31.244 14.3774 2.58519
RightHand  0.284791 -5.64176 -5.52834
LeftShoulder1  0.0104787 1.3872 -9.73678
LeftArm  -14.1136 11.134 -73.4736
LeftForeArm  31.372 -17.4638 -3.17168
LeftHand  0.107231 3.2204 3.70652
HEad  12.5444 12.6147 -3.40425
RightUpLeg  -7.55422 -11.7765 9.00406
RightLeg  13.7955 2.59771 0.464024
RightFoot  -5.53701 -0.0306679 -0.256673
RightToes  -17.8556 -0.0807404 -0.16406
31
root  -22.8828 33.4345 -32.2672 1.40151 32.0438 -5.13307
LeftUpLeg  -22.6672 13.0464 9.47458
LeftLeg  23.8705 16.6221 6.00183
LeftFoot  8.75311 -0.211574 2.76389
LeftToes  -20.6849 1.61378e-006 8.80029e-008
Spine  2.31083 1.54605 2.59089
Spine1  4.52277 3.16047 5.02541
RightShoulder  0.135209 7.26173 8.25631
RightArm  -33.4183 -15.1644 69.3217
RightForeArm  31.0184 14.5255 2.61313
RightHand  0.28313 -5.64956 -5.47773
LeftShoulder1  0.00981863 1.31963 -9.68698
LeftArm  -14.1466 11.0912 -73.1674
LeftForeArm  31.4079 -17.4751 -3.17386
LeftHand  0.106814 3.27575 3.70721
HEad  13.1471 11.2774 -3.37354
RightUpLeg  -7.45867 -11.5486 8.83507
RightLeg  13.5185 2.26091 0.392781
RightFoot  -5.33536 -0.0276182 -0.215222
RightToes  -18.0652 -0.0807404 -0.16406
32
root  -22.8535 33.4626 -32.2672 1.61673 32.1729 -4.79049
LeftUpLeg  -22.3607 12.7526 9.14051
LeftLeg  23.1604 16.8855 5.86306
LeftFoot  9.07905 -0.230503 2.90258
LeftToes  -20.5653 1.61378e-006 8.80029e-008
Spine  2.2849 1.52613 2.43452
Spine1  4.47011 3.11934 4.7254
RightShoulder  0.129212 7.27649 8.12852
RightArm  -33.2756 -15.3314 69.5469
RightForeArm  30.8054 14.6606 2.63866
RightHand  0.281826 -5.71712 -5.47384
LeftShoulder1  0.00900393 1.24471 -9.5859
LeftArm  -14.1763 11.1233 -72.8357
LeftForeArm  31.4605 -17.3723 -3.15391
LeftHand  0.107244 3.27211 3.73879
HEad  13.6973 9.93579 -3.39979
RightUpLeg  -7.38498 -11.4518 8.5061
RightLeg  13.3261 2.0597 0.350835
RightFoot  -5.23194 -0.0259964 -0.191458
RightToes  -18.049 -0.0807404 -0.16406
